<svg id="Capa_1" enable-background="new 0 0 510.023 510.023" height="512" viewBox="0 0 510.023 510.023" width="512" xmlns="http://www.w3.org/2000/svg"><g><path d="m255.012 345.024-30-45.001-33.8 32.601-11.2 42.399 37.5 47.5 37.5 27.5 10-63.667z" fill="#f6ffff"/><path d="m285.012 300.023-30 45.001v104.999l45.667-35.666 29.333-39.334-13.469-36.937z" fill="#def"/><path d="m180.012 375.023 45-75h-61.5c-57.07 0-103.5 46.43-103.5 103.5v106.5h60l15-10 15 10h105l10-37.5-10-22.5c-20.833-20.833-75-75-75-75z" fill="#91e892"/><path d="m346.512 300.023h-61.5l45 75-75 75v60h105l15-10 15 10h60v-106.5c0-57.07-46.43-103.5-103.5-103.5z" fill="#00c9af"/><g><g><path d="m225.012 263.776v51.247c0 16.568 13.432 30 30 30l10-43.25-10-31.75-15-19z" fill="#ffbca9"/><path d="m270.012 254.937-15 15.086v75c16.568 0 30-13.432 30-30v-51.247z" fill="#ffa489"/></g><path d="m180.012 120.023v75c0 41.422 33.578 75 75 75l15-75-15-105-30 15z" fill="#fddccc"/><path d="m255.012 90.023v180c41.422 0 75-33.578 75-75v-75l-30-45z" fill="#ffbca9"/></g><path d="m360.012 435.023h30v75h-30z" fill="#009297"/><path d="m120.012 435.023h30v75h-30z" fill="#00c9af"/><path d="m239.83 6.349c-9.403 4.142-20.237 3.66-28.95-1.786-4.602-2.876-10.04-4.539-15.868-4.539-14.269 0-26.209 9.959-29.25 23.305-2.133 9.352-7.688 13.441-8.312 14.257-4.763 4.763-11.223 7.438-17.959 7.438h-34.479l8.787 17.574c13.582 27.164 37.4 47.821 66.213 57.426h60l15-10 15-50-15-58.498c-5.284 1.073-10.365 2.702-15.182 4.823z" fill="#4a6383"/><path d="m255.012 1.525v108.498l30-20 45 30c9.599-12.768 15.21-28.702 14.994-45.963-.58-46.227-43.44-81.991-89.994-72.535z" fill="#394263"/></g></svg>