<svg id="Capa_1" enable-background="new 0 0 512 512" height="512" viewBox="0 0 512 512" width="512" xmlns="http://www.w3.org/2000/svg"><g><path d="m386 353.978h-260c-48.909 13.229-85 57.987-85 111.022v32c0 8.284 6.716 15 15 15h70l130-32 130 32h70c8.284 0 15-6.716 15-15v-32c0-53.035-36.091-97.793-85-111.022z" fill="#d0004f"/><path d="m156 350c-10.376 0-20.432 1.389-30 3.978v158.022h72.5c8.284 0 15-6.716 15-15v-132c0-8.284-6.716-15-15-15z" fill="#ff4a4a"/><path d="m471 497v-32c0-53.035-36.091-97.793-85-111.022h-130v126.022l130 32h70c8.284 0 15-6.716 15-15z" fill="#d0004f"/><path d="m386 353.978c-9.568-2.588-19.624-3.978-30-3.978h-42.5v-30.176c0-8.284-6.716-15-15-15h-85c-8.284 0-15 6.716-15 15v15.176 15 162h187.5z" fill="#ff7037"/><path d="m356 350h-42.5v-30.176c0-8.284-6.716-15-15-15h-42.5v207.176h130v-158.022c-9.568-2.589-19.624-3.978-30-3.978z" fill="#ff4a4a"/><circle cx="256" cy="455" fill="#fff17d" r="15"/><circle cx="256" cy="395" fill="#fff17d" r="15"/><path d="m256 340c-57.897 0-105-47.103-105-105v-70c0-8.284 6.716-15 15-15h180c8.284 0 15 6.716 15 15v70c0 57.897-47.103 105-105 105z" fill="#ffeee5"/><path d="m271 455c0-8.284-6.716-15-15-15v30c8.284 0 15-6.716 15-15z" fill="#ffc178"/><path d="m271 395c0-8.284-6.716-15-15-15v30c8.284 0 15-6.716 15-15z" fill="#ffc178"/><path d="m346 150h-90v190c57.897 0 105-47.103 105-105v-70c0-8.284-6.716-15-15-15z" fill="#ffdecf"/><path d="m346 60h-180c-8.284 0-15 6.716-15 15v90h210v-90c0-8.284-6.716-15-15-15z" fill="#a05f4b"/><path d="m346 60h-90v105h105v-90c0-8.284-6.716-15-15-15z" fill="#7d4b3b"/><path d="m346 185v67.5c0 20.711 16.789 37.5 37.5 37.5 20.711 0 37.5-16.789 37.5-37.5v-67.5c0-8.284-6.716-15-15-15h-45c-8.284 0-15 6.716-15 15z" fill="#38211a"/><path d="m128.5 290c20.711 0 37.5-16.789 37.5-37.5v-67.5c0-8.284-6.716-15-15-15h-45c-8.284 0-15 6.716-15 15v67.5c0 20.711 16.789 37.5 37.5 37.5z" fill="#5b362a"/><path d="m421 60c0-33.137-26.863-60-60-60h-210c-33.137 0-60 26.863-60 60v125h75v-110h180v110h75z" fill="#7d4b3b"/><path d="m346 75v110h75v-125c0-33.137-26.863-60-60-60h-105v75z" fill="#5b362a"/></g></svg>